<?xml version="1.0" encoding="UTF-8"?>
<svg id="Layer_1" data-name="Layer 1" xmlns="http://www.w3.org/2000/svg" xmlns:xlink="http://www.w3.org/1999/xlink" viewBox="0 0 63.156 20">
  <defs>
    <style>
      .cls-1 {
        fill: #f16022;
      }

      .cls-1, .cls-2, .cls-3, .cls-4 {
        stroke-width: 0px;
      }

      .cls-2 {
        fill: url(#linear-gradient);
      }

      .cls-3 {
        fill: #fff;
      }

      .cls-4 {
        fill: url(#linear-gradient-2);
      }
    </style>
    <linearGradient id="linear-gradient" x1="31.578" y1="20" x2="31.578" y2="0" gradientUnits="userSpaceOnUse">
      <stop offset="0" stop-color="#a33523"/>
      <stop offset="1" stop-color="#f16022"/>
    </linearGradient>
    <linearGradient id="linear-gradient-2" x1="13.6812" y1="20" x2="13.6812" y2="0" gradientUnits="userSpaceOnUse">
      <stop offset="0" stop-color="#000c2c"/>
      <stop offset="1" stop-color="#11294b"/>
    </linearGradient>
  </defs>
  <rect class="cls-2" x="0" y="0" width="63.156" height="20" rx="10" ry="10"/>
  <g>
    <path class="cls-3" d="M37.4404,10.5981c0,1.2192-.2783,2.1323-.835,2.7397s-1.3916.9111-2.5049.9111c-1.0742,0-1.8799-.2939-2.417-.8818s-.8057-1.4736-.8057-2.6577v-5.0039h1.3945v4.9863c0,.7778.1592,1.3618.4775,1.7524s.7979.5859,1.4385.5859c.6211,0,1.0859-.1885,1.3945-.5654s.4629-.9424.4629-1.6968v-5.0625h1.3945v4.8926Z"/>
    <path class="cls-3" d="M40.833,14.1084h-1.4121V5.7056h1.4121v8.4028Z"/>
    <path class="cls-3" d="M49.376,10.5981c0,1.2192-.2783,2.1323-.835,2.7397s-1.3916.9111-2.5049.9111c-1.0742,0-1.8799-.2939-2.417-.8818s-.8057-1.4736-.8057-2.6577v-5.0039h1.3945v4.9863c0,.7778.1592,1.3618.4775,1.7524s.7979.5859,1.4385.5859c.6211,0,1.0859-.1885,1.3945-.5654s.4629-.9424.4629-1.6968v-5.0625h1.3945v4.8926Z"/>
    <path class="cls-3" d="M57.4561,13.6924c-.4219.1953-.832.3369-1.2305.4248s-.832.1318-1.3008.1318c-1.2852,0-2.291-.376-3.0176-1.1279s-1.0898-1.7783-1.0898-3.0796c0-1.3281.4014-2.4062,1.2041-3.2344s1.8545-1.2422,3.1553-1.2422c.418,0,.8018.0342,1.1514.1025s.7119.1787,1.0869.3311l-.4512,1.1367c-.2969-.1211-.585-.209-.8643-.2637s-.5811-.082-.9053-.082c-.8516,0-1.5498.2832-2.0947.8496s-.8174,1.3359-.8174,2.3086c0,.9492.252,1.6987.7559,2.2476s1.1797.8232,2.0273.8232c.2773,0,.5742-.0352.8906-.1055s.6426-.1855.9785-.3457l.5215,1.125Z"/>
  </g>
  <path class="cls-4" d="M9.0306,0C4.0432,0,0,4.4772,0,10s4.0432,10,9.0306,10h18.3318V0H9.0306Z"/>
  <polygon class="cls-1" points="19.6835 6.5286 19.6835 2.4342 9.2977 2.4342 9.2977 6.5286 11.5688 6.5286 11.5688 13.4714 9.2977 13.4714 9.2977 17.5658 19.6835 17.5658 19.6835 13.4714 17.3136 13.4714 17.3136 6.5286 19.6835 6.5286"/>
</svg>